<?xml version="1.0" standalone="no"?>
<!DOCTYPE svg PUBLIC "-//W3C//DTD SVG 20010904//EN"
 "http://www.w3.org/TR/2001/REC-SVG-20010904/DTD/svg10.dtd">
<svg version="1.0" xmlns="http://www.w3.org/2000/svg"
 width="1350.000000pt" height="681.000000pt" viewBox="0 0 1350.000000 681.000000"
 preserveAspectRatio="xMidYMid meet">
<metadata>
Created by potrace 1.10, written by Peter Selinger 2001-2011
</metadata>
<g transform="translate(0.000000,681.000000) scale(0.100000,-0.100000)"
fill="#000000" stroke="none">
<path d="M3725 6120 l-550 -5 -3 -393 c-2 -302 -5 -394 -15 -397 -19 -5 -692
-15 -1072 -15 l-340 1 -418 -423 c-230 -233 -535 -540 -678 -683 -142 -144
-259 -264 -259 -268 0 -4 83 -7 184 -7 135 0 186 -3 193 -12 6 -8 13 -205 17
-500 5 -434 4 -488 -10 -502 -13 -13 -46 -16 -200 -16 -101 0 -184 -2 -184 -5
0 -4 417 -419 1160 -1154 l215 -213 945 6 c520 3 1152 9 1404 12 l459 7 -6
679 c-3 374 -8 682 -10 685 -7 6 -1089 4 -1771 -4 -576 -6 -599 -6 -612 12
-18 25 -21 990 -3 1001 6 3 543 11 1192 16 650 5 1183 10 1184 12 6 6 3 2145
-3 2161 -5 13 -27 15 -138 13 -72 -2 -378 -5 -681 -8z m529 -288 c2 -4 8 -361
12 -792 6 -715 6 -786 -9 -798 -13 -11 -235 -15 -1199 -20 l-1183 -7 4 -790
c2 -434 7 -791 10 -793 4 -1 542 -3 1197 -5 l1189 -2 0 -395 0 -395 -230 -6
c-126 -4 -666 -7 -1200 -7 l-970 -1 -403 399 -402 400 0 803 1 802 400 403
400 402 794 0 c629 0 795 3 796 13 0 6 0 182 -1 390 -1 283 1 382 10 392 11
13 72 15 396 15 210 0 385 -4 388 -8z"/>
<path d="M5890 5481 c-640 -646 -1084 -1098 -1096 -1116 -10 -16 -12 -195 -7
-938 l6 -917 484 -480 484 -480 753 0 c414 0 829 3 922 7 l169 6 475 480 c261
263 479 489 484 500 4 12 5 69 2 127 -3 58 -6 457 -6 887 0 463 -4 793 -10
808 -5 13 -29 43 -52 66 -24 22 -325 322 -670 666 -345 343 -632 622 -638 618
-6 -4 -10 -72 -10 -180 0 -144 -3 -176 -16 -189 -14 -14 -74 -16 -508 -16
-369 0 -495 3 -504 12 -8 8 -12 65 -12 189 0 98 -3 180 -8 183 -4 2 -113 -102
-242 -233z m1984 -836 l396 -390 0 -805 0 -805 -393 -397 -392 -397 -803 -7
-803 -7 -256 254 c-141 140 -318 315 -393 389 -75 74 -142 144 -147 155 -8 13
-12 280 -14 811 -3 689 -2 793 11 806 8 9 187 189 398 402 l383 386 97 1 c672
10 1481 12 1498 4 12 -5 200 -185 418 -400z"/>
<path d="M6476 4243 c-457 -3 -592 -6 -598 -16 -9 -15 -10 -836 -1 -1271 l6
-318 783 4 c548 2 786 6 794 14 12 12 13 1263 1 1474 l-6 115 -195 0 c-107 0
-460 -1 -784 -2z m709 -804 l0 -504 -504 -3 c-316 -1 -507 1 -511 7 -3 6 -5
234 -5 508 l0 498 485 5 c267 3 496 2 510 -1 l25 -5 0 -505z"/>
<path d="M12530 5510 c-83 -13 -144 -50 -196 -121 -90 -122 -82 -281 20 -398
49 -55 153 -101 231 -101 88 0 190 49 241 117 59 77 66 99 66 192 0 104 -22
162 -87 226 -71 71 -168 101 -275 85z m186 -83 c42 -26 69 -54 99 -102 16 -24
20 -49 20 -120 0 -81 -3 -94 -27 -132 -49 -75 -142 -131 -218 -132 -122 -3
-245 108 -266 237 -13 80 47 197 126 247 47 30 70 34 156 30 55 -2 81 -9 110
-28z"/>
<path d="M12505 5340 c-53 -35 -65 -59 -65 -136 0 -65 2 -72 33 -106 56 -61
173 -64 222 -6 30 35 31 46 8 64 -26 20 -43 17 -65 -11 -13 -16 -29 -25 -48
-25 -43 0 -60 23 -60 84 0 42 5 57 23 74 29 27 42 27 74 2 29 -22 46 -25 73
-10 16 9 18 14 9 34 -26 55 -143 77 -204 36z"/>
<path d="M10025 5337 c-682 -5 -1241 -10 -1243 -12 -7 -6 -1 -1360 6 -1367 4
-4 541 -4 1192 0 652 5 1188 6 1191 3 4 -3 9 -227 12 -497 5 -378 4 -495 -6
-507 -11 -14 -133 -17 -1202 -24 l-1190 -8 4 -1075 c3 -772 7 -1079 15 -1089
16 -20 1339 -9 1364 11 13 12 14 56 9 390 -6 351 -5 378 11 387 9 4 332 11
717 13 l700 5 672 679 c370 373 673 684 673 691 0 10 -40 13 -184 13 -143 0
-186 3 -195 14 -8 9 -10 152 -9 512 l3 499 115 6 c63 4 145 7 183 8 46 1 67 5
67 14 0 11 -152 164 -1076 1079 l-270 268 -160 -2 c-87 -1 -717 -6 -1399 -11z
m1843 -674 l402 -398 7 -795 c4 -487 3 -802 -3 -813 -5 -9 -187 -194 -403
-412 l-394 -395 -791 -2 -791 -3 -5 -400 -5 -400 -400 0 -400 0 -5 785 c-3
432 -2 792 2 801 7 15 118 17 1195 24 653 4 1191 9 1196 12 9 5 9 700 0 1206
l-6 377 -1201 2 -1201 3 -3 386 c-2 315 0 388 11 398 14 11 223 14 1692 19
l700 2 403 -397z"/>
</g>
</svg>
