<?xml version="1.0" standalone="no"?>
<!DOCTYPE svg PUBLIC "-//W3C//DTD SVG 20010904//EN"
 "http://www.w3.org/TR/2001/REC-SVG-20010904/DTD/svg10.dtd">
<svg version="1.0" xmlns="http://www.w3.org/2000/svg"
 width="300.000000pt" height="151.000000pt" viewBox="0 0 300.000000 151.000000"
 preserveAspectRatio="xMidYMid meet">
<metadata>
Created by potrace 1.10, written by Peter Selinger 2001-2011
</metadata>
<g transform="translate(0.000000,151.000000) scale(0.100000,-0.100000)"
fill="#000000" stroke="none">
<path d="M708 1270 l3 -90 -160 0 -161 0 -150 -152 c-82 -84 -150 -154 -150
-155 0 -2 20 -3 45 -3 l45 0 0 -110 0 -110 -49 0 -48 0 156 -155 156 -155 313
0 312 0 0 155 0 155 -270 0 -270 0 0 113 0 113 68 0 c37 -1 157 0 267 1 l200
3 0 240 0 240 -155 0 -155 0 3 -90z m242 -150 l0 -180 -265 0 -265 0 0 -181 0
-182 264 7 265 8 3 -91 3 -90 -268 -3 -267 -3 -90 90 -90 90 0 175 0 175 92
93 91 92 173 0 174 0 0 90 0 90 90 0 90 0 0 -180z"/>
<path d="M1212 1117 l-153 -153 7 -206 7 -206 102 -102 102 -102 209 1 209 2
104 104 105 104 -3 208 -2 208 -147 148 c-81 81 -149 147 -152 147 -3 0 -4
-19 -2 -42 l4 -43 -116 -1 -115 -1 -3 44 -3 43 -153 -153z m540 -84 l88 -88 0
-180 0 -180 -88 -88 -87 -87 -180 0 -180 0 -87 87 -88 88 0 180 0 180 87 87
88 88 180 0 180 0 87 -87z"/>
<path d="M1480 942 l-175 -2 3 -175 3 -175 177 0 177 0 -3 122 c-1 68 -3 148
-5 178 l-2 55 -175 -3z m120 -177 l0 -115 -115 0 -115 0 0 115 0 115 115 0
115 0 0 -115z"/>
<path d="M2756 1209 c-53 -42 -23 -122 46 -122 64 0 92 83 42 122 -15 12 -34
21 -44 21 -10 0 -29 -9 -44 -21z m82 -11 c20 -20 15 -76 -9 -88 -52 -29 -107
26 -75 75 18 27 63 34 84 13z"/>
<path d="M2771 1171 c-7 -13 -6 -23 3 -36 14 -19 47 -17 54 4 3 9 -2 11 -17 6
-15 -5 -21 -2 -21 9 0 9 9 16 21 16 11 0 17 5 14 10 -10 17 -44 11 -54 -9z"/>
<path d="M1950 1035 l0 -155 270 0 270 0 0 -115 0 -115 -270 0 -271 0 3 -240
3 -240 155 0 155 0 -3 90 -4 90 164 0 164 0 154 156 154 156 -50 -3 -49 -3 -3
118 -3 119 46 -5 c25 -3 45 -3 43 1 -2 3 -71 72 -153 154 l-151 147 -312 0
-312 0 0 -155z m692 -2 l88 -88 0 -175 0 -176 -86 -92 -87 -92 -178 0 -179 0
0 -90 0 -90 -90 0 -90 0 0 180 0 180 265 0 265 0 0 179 0 179 -265 -5 -265 -6
0 76 c0 41 -3 82 -6 91 -6 14 22 16 267 16 l274 0 87 -87z"/>
</g>
</svg>
