<?xml version="1.0" standalone="no"?>
<!DOCTYPE svg PUBLIC "-//W3C//DTD SVG 20010904//EN"
 "http://www.w3.org/TR/2001/REC-SVG-20010904/DTD/svg10.dtd">
<svg version="1.0" xmlns="http://www.w3.org/2000/svg"
 width="450.000000pt" height="227.000000pt" viewBox="0 0 450.000000 227.000000"
 preserveAspectRatio="xMidYMid meet">
<metadata>
Created by potrace 1.10, written by Peter Selinger 2001-2011
</metadata>
<g transform="translate(0.000000,227.000000) scale(0.050000,-0.050000)"
fill="#000000" stroke="none">
<path d="M2120 3820 l0 -270 -472 0 -473 0 -456 -460 -457 -460 134 -10 134
-10 1 -337 1 -338 -136 10 c-75 5 -136 4 -136 -3 0 -6 212 -218 471 -469 l471
-458 929 15 929 15 0 460 0 459 -805 -7 -805 -7 0 336 0 335 310 7 c171 4 531
9 800 10 l490 2 -5 731 -6 732 -459 -7 -460 -6 0 -270z m727 -465 l11 -535
-811 0 c-732 0 -810 -3 -799 -32 7 -17 12 -258 12 -535 l0 -503 800 5 800 6 0
-271 0 -270 -805 0 -804 0 -266 265 -265 264 0 540 0 540 265 266 264 265 536
0 535 0 0 271 0 270 258 -5 259 -6 10 -535z"/>
<path d="M4789 3705 l13 -145 -351 0 -351 0 0 135 0 135 -450 -450 -450 -450
0 -624 0 -625 325 -320 325 -320 610 0 610 -1 325 325 325 325 0 610 0 610
-472 470 -472 470 13 -145z m456 -598 l275 -271 0 -533 0 -534 -265 -264 -266
-265 -540 0 -540 0 -257 258 -258 258 -8 537 -9 537 266 265 267 264 270 6
c149 4 387 8 530 10 l260 4 275 -272z"/>
<path d="M3920 2300 l0 -540 539 0 539 0 -4 540 -4 540 -535 0 -535 0 0 -540z
m880 0 l0 -340 -339 0 -339 0 -6 340 -6 340 345 0 345 0 0 -340z"/>
<path d="M8303 3666 c-185 -92 -144 -366 61 -399 205 -33 331 216 180 358 -73
68 -157 83 -241 41z m208 -75 c130 -130 -25 -347 -188 -263 -63 33 -109 131
-89 188 44 125 187 164 277 75z"/>
<path d="M8324 3556 c-84 -84 29 -231 128 -166 37 24 46 40 31 55 -15 15 -30
14 -51 -4 -37 -30 -72 -11 -72 39 0 47 36 72 64 44 33 -33 83 -6 54 28 -28 34
-121 37 -154 4z"/>
<path d="M6540 3565 l-690 -5 6 -461 5 -461 800 6 799 6 0 -345 0 -345 -800 0
-800 0 0 -730 0 -730 473 0 472 0 -9 270 -9 270 472 0 471 0 470 471 470 471
-140 -4 -140 -5 -5 343 -6 344 135 0 136 0 -460 460 -460 460 -250 -5 c-137
-2 -560 -7 -940 -10z m1373 -450 l263 -265 12 -530 13 -530 -274 -275 -274
-275 -527 0 -526 0 0 -270 0 -270 -270 0 -270 0 0 541 0 541 105 -5 c58 -3
418 -4 800 -1 l695 4 0 530 0 530 -806 0 -806 0 -4 270 -4 270 805 0 806 0
262 -265z"/>
</g>
</svg>
