<?xml version="1.0" standalone="no"?>
<!DOCTYPE svg PUBLIC "-//W3C//DTD SVG 20010904//EN"
 "http://www.w3.org/TR/2001/REC-SVG-20010904/DTD/svg10.dtd">
<svg version="1.0" xmlns="http://www.w3.org/2000/svg"
 width="900.000000pt" height="453.000000pt" viewBox="0 0 900.000000 453.000000"
 preserveAspectRatio="xMidYMid meet">
<metadata>
Created by potrace 1.10, written by Peter Selinger 2001-2011
</metadata>
<g transform="translate(0.000000,453.000000) scale(0.100000,-0.100000)"
fill="#000000" stroke="none">
<path d="M2123 4059 c-7 -7 -9 -87 -5 -254 4 -189 2 -248 -8 -260 -11 -13 -73
-15 -479 -15 l-466 0 -448 -448 c-246 -246 -447 -453 -447 -460 0 -9 31 -12
113 -12 61 0 117 -4 124 -8 19 -12 20 -651 2 -663 -8 -5 -65 -9 -126 -9 -77 0
-113 -4 -113 -11 0 -6 204 -213 452 -459 l453 -448 910 5 c500 2 920 6 932 9
12 2 23 12 25 21 2 9 1 212 -2 452 l-5 436 -794 2 c-636 2 -796 5 -803 15 -11
18 -10 630 2 648 8 13 109 15 788 19 429 1 784 6 791 10 9 6 11 172 10 682 -1
371 -3 688 -4 704 -2 17 -3 36 -4 43 -1 16 -881 18 -898 1z m715 -716 l2 -533
-792 -2 -793 -3 0 -530 0 -530 791 4 791 4 6 -24 c4 -13 7 -131 7 -261 0 -216
-2 -238 -17 -246 -10 -5 -360 -10 -801 -11 l-784 -2 -115 113 c-64 62 -185
182 -269 267 l-154 154 0 531 0 531 267 267 268 268 166 0 c91 0 328 3 527 7
l362 6 0 248 c0 136 3 255 6 263 6 15 36 16 268 14 l261 -3 3 -532z"/>
<path d="M4054 3771 c-10 -10 -211 -212 -446 -448 l-426 -429 4 -575 c3 -316
6 -593 8 -616 4 -46 -3 -39 479 -512 l167 -164 617 7 617 7 80 82 c44 45 185
188 313 318 l233 236 -2 617 -3 617 -443 440 c-244 241 -448 439 -453 439 -5
0 -9 -49 -9 -109 0 -75 -4 -112 -13 -119 -7 -6 -139 -13 -339 -18 l-327 -7
-11 27 c-5 15 -10 72 -10 127 0 54 -4 99 -8 99 -5 0 -17 -8 -28 -19z m1194
-685 l262 -261 0 -535 -1 -535 -263 -267 -264 -268 -533 0 -534 0 -268 263
-267 262 0 540 0 540 263 262 262 263 515 2 c283 2 526 1 540 -1 17 -2 111
-89 288 -265z"/>
<path d="M4323 2813 c-312 -3 -403 -6 -403 -16 -2 -98 1 -1032 4 -1034 7 -7
1041 -2 1047 5 3 4 3 241 0 527 l-6 520 -120 0 c-66 0 -301 -1 -522 -2z m462
-528 l0 -340 -340 0 -340 0 -3 330 c-1 181 0 336 3 343 3 10 76 12 342 10
l338 -3 0 -340z"/>
<path d="M8329 3656 c-92 -29 -149 -106 -149 -201 0 -48 5 -65 34 -108 47 -70
90 -92 178 -91 59 0 74 4 110 30 48 33 98 119 98 170 0 43 -34 116 -71 153
-28 29 -112 62 -148 60 -9 -1 -32 -6 -52 -13z m112 -36 c20 -6 49 -22 64 -37
83 -84 68 -207 -34 -275 -34 -23 -143 -25 -161 -3 -7 8 -17 15 -23 15 -24 0
-77 96 -77 139 0 17 10 49 21 71 43 81 121 115 210 90z"/>
<path d="M8322 3538 c-47 -51 -41 -135 12 -167 18 -12 43 -21 56 -21 35 0 80
31 80 56 0 30 -24 37 -51 13 -12 -10 -27 -19 -34 -19 -32 0 -47 60 -25 101 11
20 45 26 55 9 7 -11 48 -14 58 -3 4 3 -3 17 -15 30 -30 32 -105 33 -136 1z"/>
<path d="M6782 3550 c-791 -5 -925 -8 -933 -21 -11 -16 -1 -879 10 -891 4 -5
364 -9 801 -10 l795 -3 3 -324 c1 -206 -1 -328 -8 -336 -7 -9 -200 -13 -796
-18 -433 -3 -790 -9 -795 -14 -4 -4 -5 -327 -1 -718 l7 -710 455 0 455 0 2
259 c2 199 5 261 15 267 7 5 223 9 480 9 l466 0 439 446 c241 245 439 452 441
460 3 11 -17 14 -110 14 -75 0 -118 4 -126 12 -9 9 -12 97 -12 335 0 376 -12
343 127 343 56 0 93 4 101 12 10 10 -31 54 -185 206 -109 106 -311 305 -449
443 -138 137 -253 248 -255 247 -2 -1 -419 -4 -927 -8z m976 -302 c63 -62 184
-182 268 -266 l154 -153 0 -536 0 -536 -265 -266 -264 -266 -530 -4 -531 -3
-2 -262 -3 -261 -245 -7 c-135 -4 -255 -5 -268 -2 l-22 4 2 533 3 532 790 5
790 5 0 530 0 530 -130 0 c-71 -1 -427 -2 -789 -3 -530 -2 -661 0 -668 10 -4
7 -7 126 -5 263 l2 250 310 5 c171 3 530 6 799 8 l489 2 115 -112z"/>
</g>
</svg>
