<?xml version="1.0" encoding="UTF-8"?>
<!-- Generator: visioncortex VTracer 0.6.3 -->
<svg version="1.1" xmlns="http://www.w3.org/2000/svg" width="1280" height="644">
<path d="M0 0 C422.4 0 844.8 0 1280 0 C1280 212.52 1280 425.04 1280 644 C857.6 644 435.2 644 0 644 C0 431.48 0 218.96 0 0 Z " fill="#FBFCFE" transform="translate(0,0)"/>
<path d="M0 0 C4.48 3.73 8.67 7.59 12.71 11.78 C14.62 13.63 16.56 15.36 18.58 17.09 C23.24 21.15 27.6 25.47 31.95 29.85 C33.24 31.14 33.24 31.14 34.55 32.45 C36.87 34.78 39.2 37.12 41.52 39.45 C43.97 41.91 46.41 44.36 48.86 46.81 C55.61 53.57 62.34 60.33 69.08 67.09 C75.26 73.29 81.44 79.49 87.63 85.68 C90.06 88.12 92.49 90.55 94.92 92.99 C97.62 95.71 100.34 98.43 103.05 101.15 C103.84 101.94 104.63 102.74 105.45 103.56 C109.61 107.72 113.85 111.72 118.32 115.55 C120.43 117.37 122.41 119.28 124.38 121.25 C125.02 121.89 125.67 122.54 126.34 123.2 C129.22 126.32 130.25 128.36 130.4 132.52 C130.44 133.46 130.48 134.39 130.51 135.36 C130.54 136.39 130.57 137.42 130.6 138.49 C130.64 139.59 130.68 140.69 130.72 141.82 C131.46 165.78 131.38 189.78 131.44 213.75 C131.47 223.5 131.52 233.25 131.61 243 C131.66 249.91 131.69 256.82 131.7 263.73 C131.71 267.84 131.72 271.95 131.77 276.06 C131.81 279.91 131.82 283.75 131.81 287.6 C131.81 289.01 131.82 290.41 131.85 291.82 C132.03 302.38 132.03 302.38 129.63 306.15 C127.85 307.93 125.97 309.44 124 311 C122.78 312.29 121.59 313.6 120.44 314.95 C119.57 315.95 119.57 315.95 118.68 316.98 C116.01 320.19 113.52 323.52 111.02 326.87 C60.31 393.54 60.31 393.54 23.8 399.21 C-3.67 402.59 -31.81 399.78 -59.23 397.1 C-70.44 396.01 -81.48 395.72 -92.73 396.02 C-93.49 396.03 -94.24 396.05 -95.02 396.07 C-98.56 396.16 -102.11 396.26 -105.65 396.38 C-111.64 396.57 -117.63 396.7 -123.63 396.72 C-124.58 396.75 -125.54 396.78 -126.53 396.82 C-132.81 396.8 -135.89 395.19 -140.35 390.76 C-140.9 390.18 -141.44 389.6 -142 389 C-142.89 388.13 -143.77 387.27 -144.69 386.38 C-146.23 384.79 -147.77 383.21 -149.31 381.62 C-154.31 376.74 -159.6 372.28 -165.12 367.99 C-226.66 320.16 -226.66 320.16 -231.12 288.76 C-233.16 269.78 -231.45 250.46 -229.55 231.53 C-228.16 217.68 -227.72 204.05 -227.91 190.14 C-227.92 189.18 -227.93 188.22 -227.95 187.23 C-228.01 182.52 -228.08 177.81 -228.16 173.09 C-228.29 165.25 -228.34 157.41 -228.33 149.57 C-228.33 147.29 -228.35 145.02 -228.36 142.75 C-228.36 141.38 -228.36 140.02 -228.36 138.65 C-228.36 137.48 -228.36 136.31 -228.37 135.1 C-227.56 128.28 -222.55 124.28 -217.89 119.67 C-217.17 118.96 -216.44 118.24 -215.7 117.49 C-213.32 115.12 -210.93 112.75 -208.55 110.39 C-206.89 108.73 -205.23 107.08 -203.57 105.42 C-199.19 101.06 -194.81 96.71 -190.43 92.36 C-183.44 85.4 -176.45 78.44 -169.46 71.48 C-167.03 69.05 -164.59 66.63 -162.15 64.21 C-160.64 62.71 -159.14 61.21 -157.63 59.71 C-156.96 59.05 -156.29 58.38 -155.6 57.7 C-151.76 53.87 -148.12 49.91 -144.58 45.81 C-142.59 43.53 -140.49 41.37 -138.35 39.24 C-137.51 38.4 -136.67 37.56 -135.8 36.69 C-134.48 35.37 -134.48 35.37 -133.13 34.03 C-132.21 33.11 -131.28 32.19 -130.33 31.24 C-127.91 28.82 -125.48 26.4 -123.05 23.98 C-120.56 21.5 -118.07 19.02 -115.59 16.54 C-110.73 11.69 -105.87 6.84 -101 2 C-100.01 2.5 -100.01 2.5 -99 3 C-98.6 4.86 -98.6 4.86 -98.41 7.31 C-98.33 8.21 -98.26 9.12 -98.18 10.05 C-97.81 16.1 -97.6 22.16 -97.39 28.22 C-97.34 29.71 -97.34 29.71 -97.28 31.22 C-97.25 32.12 -97.22 33.01 -97.19 33.93 C-97.22 35.99 -97.22 35.99 -96 37 C-93.05 37.1 -90.12 37.13 -87.17 37.11 C-86.24 37.11 -85.31 37.11 -84.36 37.11 C-81.28 37.11 -78.2 37.11 -75.12 37.1 C-72.99 37.1 -70.86 37.09 -68.74 37.09 C-63.12 37.09 -57.51 37.08 -51.89 37.07 C-46.17 37.06 -40.44 37.05 -34.72 37.05 C-23.48 37.04 -12.24 37.02 -1 37 C-1 36.12 -1 36.12 -1.01 35.22 C-1.02 32.51 -1.02 29.79 -1.03 27.08 C-1.04 26.16 -1.04 25.23 -1.04 24.28 C-1.06 16.15 -0.64 8.1 0 0 Z " fill="#FCFDFF" transform="translate(681,100)"/>
<path d="M0 0 C70.37 -5.85 70.37 -5.85 93.62 13.07 C108.76 25.98 121.31 41.28 132.99 57.32 C135.81 61.12 138.81 64.16 142.46 67.15 C148.49 72.22 152.8 76.29 153.8 84.41 C153.97 86.97 154.1 89.53 154.19 92.1 C154.27 93.52 154.35 94.94 154.43 96.36 C154.68 101.01 154.84 105.67 154.99 110.33 C155.03 111.53 155.03 111.53 155.07 112.75 C155.32 120.37 155.53 127.98 155.66 135.59 C155.82 144.35 156.07 153.07 156.58 161.82 C160.18 224.63 160.18 224.63 140.27 246.96 C131.04 256.96 120.54 265.67 109.66 273.81 C104.14 278.03 99.88 282.68 95.77 288.26 C89.07 297.22 82.48 304.74 70.99 306.58 C62.74 307.45 54.42 307.21 46.13 306.98 C41.96 306.88 37.78 306.9 33.6 306.9 C25.72 306.89 17.84 306.78 9.96 306.64 C0.09 306.47 -9.78 306.42 -19.64 306.37 C-29.71 306.31 -39.77 306.25 -49.83 306.11 C-50.6 306.1 -51.37 306.08 -52.16 306.07 C-55.77 306.02 -59.38 305.97 -62.98 305.91 C-64.23 305.89 -65.47 305.87 -66.76 305.85 C-68.39 305.83 -68.39 305.83 -70.05 305.8 C-72.43 305.61 -72.43 305.61 -73.48 306.88 C-73.6 309.18 -73.66 311.49 -73.69 313.79 C-73.7 314.51 -73.71 315.23 -73.72 315.98 C-73.75 318.38 -73.77 320.77 -73.8 323.17 C-73.82 324.83 -73.84 326.48 -73.86 328.14 C-73.92 332.51 -73.96 336.89 -74.01 341.26 C-74.06 345.71 -74.12 350.17 -74.17 354.63 C-74.28 363.38 -74.38 372.13 -74.48 380.88 C-110.2 382.07 -110.2 382.07 -127.38 382.07 C-130.03 382.07 -132.69 382.09 -135.34 382.11 C-137.05 382.11 -138.76 382.11 -140.48 382.11 C-141.26 382.12 -142.04 382.13 -142.85 382.14 C-148.25 382.11 -148.25 382.11 -150.48 379.88 C-150.75 377.33 -150.75 377.33 -150.77 374.04 C-150.79 372.79 -150.8 371.55 -150.81 370.27 C-150.82 368.88 -150.83 367.49 -150.83 366.1 C-150.84 364.65 -150.86 363.19 -150.87 361.74 C-150.91 357.78 -150.93 353.82 -150.95 349.86 C-150.97 345.73 -151.01 341.59 -151.04 337.45 C-151.09 330.51 -151.13 323.56 -151.17 316.61 C-151.21 308.57 -151.27 300.53 -151.34 292.49 C-151.39 285.6 -151.44 278.7 -151.48 271.81 C-151.51 267.69 -151.53 263.57 -151.57 259.44 C-151.6 255.57 -151.62 251.7 -151.64 247.82 C-151.64 246.4 -151.65 244.97 -151.67 243.55 C-151.69 241.61 -151.69 239.67 -151.7 237.73 C-151.7 236.64 -151.71 235.56 -151.72 234.44 C-151.48 231.88 -151.48 231.88 -149.48 229.88 C-147.27 229.62 -147.27 229.62 -144.47 229.61 C-142.87 229.59 -142.87 229.59 -141.24 229.57 C-140.06 229.57 -138.89 229.57 -137.67 229.57 C-136.44 229.56 -135.2 229.55 -133.92 229.54 C-130.49 229.51 -127.06 229.49 -123.63 229.48 C-119.98 229.46 -116.33 229.44 -112.68 229.41 C-105.63 229.36 -98.59 229.33 -91.54 229.29 C-85.87 229.27 -80.21 229.24 -74.55 229.2 C-73.75 229.2 -72.95 229.19 -72.13 229.19 C-71.33 229.18 -70.53 229.18 -69.71 229.17 C-20.63 228.88 28.44 228.74 77.52 228.88 C77.28 227.09 77.28 227.09 77.03 225.26 C76.32 218.82 76.34 212.39 76.31 205.92 C76.3 204.53 76.29 203.14 76.28 201.75 C76.26 198 76.24 194.25 76.22 190.5 C76.19 186.57 76.17 182.64 76.14 178.72 C76.09 171.29 76.05 163.86 76 156.44 C75.95 147.98 75.9 139.52 75.84 131.06 C75.73 113.67 75.62 96.28 75.52 78.88 C73.78 78.89 73.78 78.89 72.01 78.89 C44.55 78.93 17.09 78.97 -10.37 78.99 C-13.75 78.99 -17.12 78.99 -20.5 78.99 C-21.51 78.99 -21.51 78.99 -22.54 79 C-33.44 79 -44.33 79.02 -55.23 79.04 C-66.41 79.06 -77.58 79.07 -88.76 79.07 C-95.04 79.08 -101.32 79.08 -107.6 79.1 C-113.5 79.11 -119.41 79.11 -125.31 79.11 C-127.49 79.11 -129.66 79.12 -131.83 79.12 C-134.79 79.13 -137.74 79.13 -140.7 79.12 C-141.57 79.13 -142.44 79.14 -143.33 79.14 C-149.25 79.11 -149.25 79.11 -151.48 76.88 C-151.76 74.71 -151.76 74.71 -151.8 71.99 C-151.82 70.96 -151.84 69.94 -151.86 68.89 C-151.87 67.77 -151.88 66.66 -151.89 65.51 C-151.91 64.36 -151.93 63.2 -151.95 62.02 C-152.01 58.3 -152.06 54.59 -152.11 50.88 C-152.14 48.44 -152.18 46 -152.22 43.56 C-152.31 37.73 -152.39 31.89 -152.44 26.06 C-152.48 23.1 -152.52 20.15 -152.57 17.19 C-152.59 15.55 -152.61 13.9 -152.63 12.26 C-152.64 11.53 -152.66 10.79 -152.68 10.03 C-152.69 8.32 -152.59 6.6 -152.48 4.88 C-150.06 2.47 -149.49 2.63 -146.18 2.61 C-145.27 2.59 -144.37 2.58 -143.43 2.57 C-141.93 2.57 -141.93 2.57 -140.4 2.57 C-138.81 2.55 -138.81 2.55 -137.19 2.54 C-134.87 2.52 -132.55 2.5 -130.22 2.49 C-126.47 2.47 -122.72 2.44 -118.96 2.4 C-105.74 2.29 -92.51 2.25 -79.28 2.27 C-73.51 2.28 -67.74 2.28 -61.96 2.27 C-60.5 2.27 -59.05 2.27 -57.59 2.27 C-38.3 2.26 -19.24 1.64 0 0 Z " fill="#FCFDFF" transform="translate(1011.4803924560547,162.11567497253418)"/>
<path d="M0 0 C1.15 -0 1.15 -0 2.31 -0.01 C4.46 -0.01 6.6 -0.01 8.74 -0.01 C10.56 -0.01 10.56 -0.01 12.42 -0 C15.12 0.12 15.12 0.12 16.12 1.12 C16.25 4.1 16.31 7.06 16.33 10.04 C16.34 10.98 16.35 11.92 16.36 12.89 C16.39 16.03 16.42 19.18 16.44 22.32 C16.46 24.54 16.48 26.76 16.5 28.97 C16.55 33.67 16.59 38.36 16.63 43.05 C16.68 48.92 16.73 54.78 16.79 60.64 C17.08 91.14 17.19 121.63 17.12 152.12 C16.5 152.13 15.88 152.13 15.23 152.14 C-77.4 152.75 -77.4 152.75 -170.03 153.6 C-172.88 153.63 -175.73 153.65 -178.58 153.68 C-182.96 153.72 -187.35 153.77 -191.73 153.82 C-193.31 153.83 -194.88 153.85 -196.46 153.86 C-198.56 153.88 -200.66 153.91 -202.77 153.94 C-203.93 153.95 -205.1 153.96 -206.3 153.97 C-208.81 153.83 -208.81 153.83 -209.88 155.12 C-209.98 158.25 -210.01 161.36 -210.01 164.49 C-210.01 165.47 -210.01 166.45 -210.01 167.46 C-209.99 197.19 -209.75 226.92 -209.4 256.65 C-209.34 261.92 -209.28 267.18 -209.22 272.44 C-209.11 282.67 -208.99 292.9 -208.88 303.12 C-207.72 303.12 -206.56 303.12 -205.36 303.12 C-177.89 303.1 -150.41 303.08 -122.94 303.07 C-119.56 303.07 -116.18 303.07 -112.8 303.07 C-112.13 303.07 -111.45 303.07 -110.76 303.07 C-99.86 303.06 -88.95 303.06 -78.05 303.05 C-66.86 303.04 -55.68 303.03 -44.5 303.03 C-38.22 303.03 -31.93 303.03 -25.65 303.02 C-19.74 303.01 -13.84 303.01 -7.93 303.01 C-5.75 303.01 -3.58 303.01 -1.4 303.01 C1.55 303 4.51 303 7.46 303 C8.34 303 9.21 303 10.11 303 C16.01 303.01 16.01 303.01 17.12 304.12 C18.37 312.2 18.25 320.29 18.22 328.44 C18.22 329.91 18.22 331.38 18.22 332.84 C18.21 336.67 18.2 340.51 18.19 344.34 C18.18 348.26 18.18 352.18 18.17 356.1 C18.16 363.78 18.15 371.45 18.12 379.12 C-13.32 379.43 -44.77 379.7 -76.21 379.92 C-79.8 379.95 -83.38 379.97 -86.96 380 C-88.02 380 -88.02 380 -89.11 380.01 C-100.64 380.09 -112.17 380.21 -123.71 380.33 C-133.52 380.43 -143.33 380.5 -153.14 380.56 C-158.88 380.59 -164.61 380.64 -170.35 380.71 C-175.72 380.78 -181.08 380.82 -186.44 380.83 C-188.39 380.84 -190.35 380.86 -192.3 380.9 C-208.76 381.18 -208.76 381.18 -213.62 377.04 C-214.74 375.77 -215.83 374.46 -216.88 373.12 C-218.1 371.9 -219.34 370.7 -220.59 369.5 C-221.86 368.23 -223.12 366.96 -224.38 365.69 C-225.05 365 -225.73 364.32 -226.44 363.62 C-229.31 360.73 -232.17 357.83 -235.04 354.94 C-237.15 352.81 -239.26 350.69 -241.38 348.56 C-242.01 347.92 -242.64 347.28 -243.29 346.62 C-249.14 340.75 -254.91 335.36 -261.91 330.89 C-275 322.28 -285.03 311.61 -288.37 295.91 C-292.23 275.75 -292.33 255.02 -292.36 234.57 C-292.38 232 -292.41 229.42 -292.45 226.85 C-293.07 185.21 -291.83 149.8 -261.66 118.29 C-220.22 76.99 -220.22 76.99 -202.94 77 C-201.68 77 -200.41 77 -199.11 77 C-197.7 77 -196.29 77.01 -194.88 77.01 C-193.4 77.01 -191.92 77.01 -190.44 77.01 C-186.42 77.01 -182.4 77.02 -178.38 77.02 C-174.18 77.03 -169.99 77.03 -165.79 77.03 C-157.83 77.03 -149.88 77.04 -141.92 77.05 C-132.87 77.06 -123.82 77.07 -114.76 77.07 C-96.13 77.09 -77.5 77.1 -58.88 77.12 C-58.9 76.25 -58.93 75.38 -58.96 74.48 C-59.08 71.17 -59.19 67.86 -59.29 64.56 C-59.34 63.14 -59.39 61.72 -59.44 60.3 C-59.83 48.71 -60.03 37.13 -60.01 25.52 C-60 22.71 -60.01 19.89 -60.01 17.07 C-60.01 15.26 -60.01 13.45 -60.01 11.64 C-60.01 10.8 -60.01 9.97 -60.01 9.11 C-59.99 3.36 -59.99 3.36 -58.88 1.12 C-39.25 0.53 -19.63 0.02 0 0 Z " fill="#FCFDFF" transform="translate(387.875,89.875)"/>
<path d="M0 0 C0.82 -0.02 1.63 -0.03 2.48 -0.05 C4.02 -0.08 5.56 -0.12 7.09 -0.18 C11.86 -0.25 14.59 0.58 18.35 3.5 C19.86 5.02 21.32 6.58 22.74 8.19 C23.54 9.02 24.33 9.84 25.16 10.7 C27.67 13.32 30.12 16 32.57 18.69 C34.25 20.46 35.93 22.23 37.61 24 C40 26.5 42.37 29 44.71 31.54 C45.41 32.3 46.11 33.06 46.84 33.84 C47.74 34.83 47.74 34.83 48.66 35.84 C50.62 37.79 52.61 39.59 54.7 41.39 C59 45.12 63.03 49.07 67.04 53.11 C67.81 53.87 68.57 54.64 69.36 55.43 C71.87 57.93 74.37 60.44 76.87 62.95 C78.62 64.7 80.37 66.45 82.12 68.2 C86.71 72.8 91.3 77.39 95.88 81.99 C100.56 86.67 105.23 91.35 109.9 96.03 C117.45 103.58 124.99 111.14 132.52 118.69 C133.18 119.35 133.84 120.01 134.52 120.69 C135.12 121.29 135.72 121.9 136.34 122.52 C137.69 123.87 139.05 125.2 140.42 126.54 C141.95 128.12 141.95 128.12 141.95 129.12 C140.89 129.18 139.84 129.23 138.75 129.29 C134.85 129.5 130.95 129.71 127.05 129.92 C125.36 130.01 123.67 130.1 121.98 130.19 C119.55 130.32 117.13 130.45 114.7 130.59 C113.94 130.63 113.18 130.67 112.4 130.71 C108.87 130.6 108.87 130.6 105.95 132.12 C105.84 135.04 105.81 137.93 105.81 140.85 C105.81 142.22 105.81 142.22 105.81 143.62 C105.81 146.67 105.81 149.71 105.82 152.75 C105.82 153.78 105.82 154.82 105.82 155.88 C105.85 179.3 106.34 202.71 106.95 226.12 C107.99 226.14 109.04 226.16 110.11 226.18 C113.99 226.26 117.86 226.35 121.74 226.44 C123.41 226.48 125.09 226.51 126.77 226.55 C129.18 226.59 131.59 226.65 134 226.71 C134.75 226.72 135.5 226.73 136.27 226.74 C140.01 226.85 141.76 227 144.95 229.12 C144.46 229.54 143.98 229.95 143.49 230.37 C138.37 234.78 133.52 239.4 128.76 244.18 C127.63 245.3 127.63 245.3 126.49 246.45 C124.91 248.02 123.34 249.59 121.77 251.17 C119.39 253.55 117 255.94 114.61 258.32 C113.08 259.86 111.54 261.39 110.01 262.93 C108.95 263.99 108.95 263.99 107.87 265.06 C107.2 265.74 106.52 266.42 105.83 267.11 C105.25 267.7 104.66 268.28 104.06 268.88 C100.92 272.21 97.95 275.67 94.95 279.12 C85.59 289.8 76.07 300.3 66.32 310.63 C61.95 315.26 57.65 319.93 53.46 324.73 C23.13 359.38 23.13 359.38 -0.93 361 C-11.47 361.34 -21.96 360.57 -32.45 359.63 C-41.38 358.87 -50.26 359.09 -59.21 359.34 C-63.57 359.45 -67.92 359.48 -72.28 359.52 C-73.96 359.54 -75.64 359.55 -77.33 359.57 C-80.82 359.61 -84.32 359.64 -87.82 359.68 C-92.19 359.72 -96.56 359.77 -100.93 359.82 C-102.55 359.83 -104.18 359.85 -105.81 359.86 C-108.03 359.88 -110.25 359.91 -112.47 359.93 C-114.35 359.95 -114.35 359.95 -116.27 359.97 C-118.96 359.81 -118.96 359.81 -120.05 361.12 C-120.18 363.42 -120.23 365.73 -120.26 368.03 C-120.27 368.75 -120.28 369.47 -120.29 370.22 C-120.32 372.61 -120.34 375.01 -120.37 377.41 C-120.39 379.07 -120.41 380.72 -120.43 382.38 C-120.49 386.75 -120.54 391.12 -120.59 395.5 C-120.64 399.95 -120.69 404.41 -120.75 408.87 C-120.85 417.62 -120.96 426.37 -121.05 435.12 C-137.99 435.15 -154.92 435.16 -171.85 435.18 C-179.71 435.18 -187.57 435.19 -195.44 435.2 C-202.29 435.21 -209.13 435.22 -215.98 435.22 C-219.61 435.22 -223.24 435.22 -226.87 435.23 C-230.92 435.24 -234.96 435.24 -239.01 435.24 C-240.22 435.24 -241.43 435.24 -242.68 435.25 C-243.77 435.25 -244.87 435.25 -246 435.24 C-247.43 435.24 -247.43 435.24 -248.9 435.25 C-251.05 435.12 -251.05 435.12 -252.05 434.12 C-252.22 431.69 -252.31 429.29 -252.37 426.86 C-252.39 426.07 -252.41 425.27 -252.43 424.46 C-252.5 421.71 -252.56 418.96 -252.61 416.21 C-252.63 415.23 -252.65 414.25 -252.68 413.24 C-253.36 380.17 -253.17 347.08 -253.13 313.99 C-253.11 304.71 -253.11 295.43 -253.1 286.15 C-253.09 267.14 -253.08 248.13 -253.05 229.12 C-206.04 228.15 -159.05 227.99 -112.03 228.05 C-100.7 228.06 -89.38 228.07 -78.05 228.08 C-60.39 228.09 -42.72 228.11 -25.05 228.12 C-25.71 196.44 -26.37 164.76 -27.05 132.12 C-33.89 132.13 -40.73 132.13 -47.78 132.14 C-69.65 132.16 -91.51 132.17 -113.38 132.17 C-116.77 132.18 -120.16 132.18 -123.56 132.18 C-124.23 132.18 -124.91 132.18 -125.6 132.18 C-136.56 132.18 -147.51 132.19 -158.46 132.2 C-169.7 132.21 -180.93 132.22 -192.16 132.22 C-198.47 132.22 -204.78 132.22 -211.09 132.23 C-217.03 132.24 -222.96 132.24 -228.89 132.24 C-231.08 132.24 -233.26 132.24 -235.45 132.24 C-238.42 132.25 -241.38 132.25 -244.35 132.24 C-245.23 132.25 -246.11 132.25 -247.01 132.25 C-252.94 132.24 -252.94 132.24 -254.05 131.12 C-254.15 129.45 -254.17 127.78 -254.17 126.11 C-254.17 125.02 -254.18 123.93 -254.18 122.81 C-254.17 121.01 -254.17 121.01 -254.17 119.17 C-254.17 117.91 -254.17 116.65 -254.17 115.35 C-254.17 111.89 -254.16 108.43 -254.15 104.97 C-254.15 101.36 -254.15 97.75 -254.15 94.13 C-254.14 87.29 -254.14 80.44 -254.12 73.6 C-254.11 65.81 -254.11 58.01 -254.1 50.22 C-254.09 34.19 -254.08 18.16 -254.05 2.12 C-224 1.35 -193.95 0.94 -163.89 0.82 C-158.35 0.8 -152.81 0.77 -147.27 0.74 C-138.01 0.7 -128.75 0.66 -119.49 0.62 C-106.48 0.57 -93.47 0.51 -80.46 0.45 C-62.97 0.37 -45.47 0.29 -27.97 0.21 C-26.11 0.2 -24.24 0.2 -22.38 0.19 C-21.51 0.18 -20.64 0.18 -19.74 0.18 C-18.89 0.17 -18.04 0.17 -17.17 0.16 C-15.52 0.16 -13.87 0.15 -12.22 0.15 C-8.15 0.15 -4.08 0.11 0 0 Z M-134.39 28.47 C-135.84 28.48 -137.29 28.48 -138.74 28.48 C-144.5 28.49 -150.26 28.5 -156.02 28.49 C-169.8 28.49 -183.58 28.55 -197.36 28.68 C-201.03 28.71 -204.7 28.73 -208.37 28.75 C-210.57 28.76 -212.77 28.78 -214.97 28.8 C-215.97 28.81 -216.97 28.81 -218.01 28.81 C-218.91 28.82 -219.82 28.83 -220.75 28.84 C-221.54 28.85 -222.33 28.86 -223.14 28.86 C-225.29 28.96 -225.29 28.96 -227.05 31.12 C-227.22 33.62 -227.25 36 -227.2 38.5 C-227.19 39.28 -227.18 40.06 -227.18 40.87 C-227.15 42.64 -227.13 44.41 -227.1 46.18 C-227.05 49.33 -227.02 52.48 -226.98 55.63 C-226.92 61.57 -226.83 67.51 -226.74 73.44 C-226.7 75.93 -226.66 78.41 -226.63 80.89 C-226.59 84.51 -226.53 88.13 -226.47 91.75 C-226.46 92.86 -226.44 93.98 -226.43 95.13 C-226.41 96.15 -226.39 97.17 -226.37 98.22 C-226.36 99.13 -226.35 100.03 -226.33 100.95 C-226.25 103.33 -226.25 103.33 -224.05 105.12 C-221.09 105.32 -218.23 105.38 -215.27 105.36 C-214.35 105.37 -213.43 105.37 -212.48 105.37 C-209.38 105.37 -206.27 105.36 -203.17 105.35 C-200.95 105.35 -198.74 105.35 -196.52 105.35 C-190.49 105.35 -184.45 105.34 -178.42 105.33 C-172.12 105.31 -165.81 105.31 -159.51 105.31 C-148.93 105.3 -138.35 105.29 -127.77 105.27 C-116.87 105.26 -105.97 105.24 -95.07 105.23 C-94.07 105.23 -94.07 105.23 -93.04 105.23 C-89.67 105.23 -86.3 105.23 -82.93 105.22 C-54.97 105.2 -27.01 105.17 0.95 105.12 C0.95 105.84 0.96 106.56 0.96 107.3 C1.06 124.8 1.17 142.31 1.29 159.81 C1.34 168.27 1.4 176.74 1.44 185.2 C1.49 192.58 1.53 199.96 1.58 207.34 C1.61 211.25 1.64 215.15 1.66 219.06 C1.68 222.74 1.7 226.42 1.73 230.1 C1.74 232.09 1.75 234.07 1.76 236.06 C1.81 242.49 2.09 248.74 2.95 255.12 C2.18 255.12 1.42 255.12 0.63 255.12 C-48.48 254.98 -97.59 255.13 -146.7 255.43 C-147.5 255.43 -148.3 255.44 -149.12 255.44 C-149.92 255.45 -150.72 255.45 -151.54 255.46 C-157.21 255.49 -162.87 255.52 -168.53 255.54 C-175.52 255.58 -182.5 255.62 -189.48 255.67 C-193.11 255.69 -196.73 255.71 -200.35 255.73 C-204.31 255.74 -208.28 255.77 -212.25 255.8 C-213.42 255.81 -214.6 255.81 -215.81 255.81 C-216.88 255.82 -217.94 255.83 -219.04 255.84 C-220.43 255.85 -220.43 255.85 -221.85 255.86 C-224.26 255.92 -224.26 255.92 -226.05 258.12 C-226.34 260.79 -226.34 260.79 -226.27 263.97 C-226.27 265.21 -226.26 266.46 -226.26 267.74 C-226.25 269.13 -226.23 270.52 -226.22 271.9 C-226.21 273.36 -226.21 274.81 -226.2 276.27 C-226.18 280.23 -226.15 284.19 -226.12 288.15 C-226.09 292.28 -226.06 296.42 -226.04 300.55 C-225.99 307.5 -225.94 314.45 -225.89 321.4 C-225.82 329.44 -225.77 337.48 -225.73 345.52 C-225.69 352.41 -225.64 359.31 -225.59 366.2 C-225.56 370.32 -225.53 374.44 -225.51 378.56 C-225.49 382.44 -225.46 386.31 -225.42 390.19 C-225.41 391.61 -225.4 393.04 -225.4 394.46 C-225.39 396.4 -225.37 398.34 -225.34 400.28 C-225.34 401.36 -225.33 402.45 -225.32 403.57 C-225.31 406.29 -225.31 406.29 -223.05 408.12 C-220.35 408.31 -217.75 408.38 -215.05 408.35 C-213.81 408.35 -213.81 408.35 -212.54 408.35 C-210.76 408.35 -208.98 408.34 -207.2 408.33 C-204.61 408.31 -202.02 408.31 -199.43 408.31 C-182.63 408.27 -165.84 407.68 -149.05 407.12 C-149.04 406.2 -149.03 405.27 -149.02 404.32 C-148.92 395.62 -148.82 386.93 -148.71 378.23 C-148.66 373.76 -148.6 369.29 -148.56 364.82 C-148.51 360.5 -148.46 356.19 -148.4 351.88 C-148.38 350.23 -148.36 348.58 -148.34 346.93 C-148.32 344.63 -148.29 342.33 -148.26 340.03 C-148.24 338.72 -148.23 337.41 -148.21 336.05 C-148.05 333.12 -148.05 333.12 -147.05 332.12 C-145.16 332.07 -143.26 332.09 -141.37 332.13 C-140.13 332.16 -138.9 332.19 -137.62 332.21 C-136.62 332.24 -136.62 332.24 -135.59 332.26 C-131.91 332.35 -128.23 332.42 -124.56 332.5 C-123.38 332.52 -123.38 332.52 -122.18 332.55 C-111.19 332.77 -100.19 332.85 -89.2 332.95 C-80.27 333.02 -71.33 333.15 -62.4 333.38 C-54.59 333.58 -46.8 333.7 -38.99 333.7 C-34.86 333.71 -30.75 333.76 -26.63 333.92 C-11.47 334.49 1.5 334.73 13.23 324.05 C18.97 318.5 24.01 312.39 28.95 306.12 C33.21 300.82 37.51 296.76 43.06 292.8 C59.5 280.95 76.95 266.37 80.67 245.48 C83.6 225.88 82.46 205.68 81.48 185.97 C81.06 177.18 80.94 168.39 80.83 159.59 C80.73 152.83 80.55 146.07 80.37 139.31 C80.32 137.69 80.28 136.07 80.24 134.45 C80.13 129.85 79.97 125.25 79.73 120.66 C79.64 118.62 79.59 116.58 79.53 114.55 C79.04 106.28 77.16 101.94 71.21 96.13 C70.47 95.47 69.72 94.81 68.95 94.12 C68.28 93.52 67.62 92.91 66.93 92.29 C65.8 91.26 64.65 90.26 63.49 89.26 C56.73 83.39 51.38 77.19 46.22 69.88 C33.5 51.9 17.04 30.71 -5.71 26.18 C-29.33 22.45 -54.09 25.07 -77.8 26.76 C-96.68 28.1 -115.47 28.45 -134.39 28.47 Z " fill="#201F20" transform="translate(1086.052978515625,135.87664890289307)"/>
<path d="M0 0 C1.07 -0 2.14 -0 3.25 -0 C4.43 -0 5.61 0 6.82 0.01 C8.06 0.01 9.3 0.01 10.58 0.01 C13.98 0.01 17.38 0.01 20.79 0.02 C24.34 0.03 27.89 0.03 31.45 0.03 C38.18 0.03 44.91 0.04 51.65 0.05 C59.31 0.06 66.97 0.06 74.64 0.07 C90.4 0.08 106.17 0.1 121.94 0.12 C123.86 4.95 124.22 9.3 124.18 14.43 C124.18 15.67 124.18 15.67 124.18 16.92 C124.19 19.67 124.18 22.42 124.17 25.16 C124.16 27.13 124.16 29.1 124.17 31.07 C124.17 36.42 124.15 41.77 124.14 47.11 C124.13 52.7 124.13 58.29 124.12 63.88 C124.12 74.46 124.1 85.05 124.08 95.63 C124.06 107.68 124.05 119.73 124.04 131.77 C124.02 156.56 123.98 181.34 123.94 206.12 C99.81 207.16 75.7 207.31 51.55 207.39 C46.17 207.41 40.79 207.43 35.41 207.46 C19.49 207.53 3.57 207.59 -12.35 207.65 C-24.81 207.69 -37.27 207.74 -49.73 207.8 C-56.12 207.83 -62.51 207.85 -68.9 207.87 C-72.85 207.88 -76.8 207.9 -80.75 207.92 C-82.59 207.93 -84.42 207.93 -86.26 207.94 C-88.75 207.94 -91.25 207.96 -93.74 207.97 C-94.48 207.97 -95.21 207.97 -95.97 207.97 C-99.3 207.7 -99.3 207.7 -102.06 209.12 C-102.16 212.01 -102.2 214.87 -102.19 217.76 C-102.19 218.66 -102.19 219.57 -102.2 220.5 C-102.2 223.51 -102.2 226.52 -102.19 229.53 C-102.2 231.61 -102.2 233.69 -102.2 235.77 C-102.2 240.14 -102.2 244.51 -102.19 248.87 C-102.19 254.49 -102.19 260.1 -102.2 265.71 C-102.2 270.01 -102.2 274.31 -102.2 278.61 C-102.2 280.68 -102.2 282.75 -102.2 284.82 C-102.2 287.71 -102.2 290.6 -102.19 293.49 C-102.19 294.78 -102.19 294.78 -102.2 296.11 C-102.56 299.92 -102.56 299.92 -101.06 303.12 C-98.17 303.22 -95.3 303.25 -92.41 303.23 C-91.49 303.23 -90.57 303.23 -89.62 303.23 C-86.52 303.23 -83.41 303.23 -80.31 303.22 C-78.09 303.22 -75.88 303.21 -73.66 303.21 C-68.88 303.21 -64.1 303.2 -59.32 303.2 C-51.76 303.18 -44.21 303.18 -36.66 303.17 C-26.08 303.16 -15.49 303.15 -4.91 303.14 C-4.24 303.14 -3.57 303.14 -2.87 303.14 C1.9 303.13 6.67 303.13 11.44 303.12 C16.89 303.11 22.34 303.11 27.79 303.1 C28.46 303.1 29.13 303.1 29.82 303.1 C41 303.08 52.18 303.07 63.35 303.07 C70.87 303.06 78.39 303.05 85.9 303.04 C90.57 303.03 95.24 303.03 99.9 303.03 C102.08 303.02 104.25 303.02 106.42 303.01 C109.38 303.01 112.33 303.01 115.28 303.01 C116.15 303 117.03 303 117.92 303 C123.82 303.01 123.82 303.01 124.94 304.12 C125.05 305.79 125.08 307.46 125.1 309.14 C125.11 310.77 125.11 310.77 125.13 312.43 C125.13 313.63 125.14 314.84 125.14 316.08 C125.15 317.33 125.16 318.59 125.17 319.89 C125.2 323.35 125.22 326.81 125.24 330.27 C125.26 333.88 125.29 337.5 125.32 341.11 C125.37 347.95 125.41 354.8 125.46 361.65 C125.5 369.44 125.56 377.23 125.62 385.02 C125.73 401.05 125.84 417.09 125.94 433.12 C112.41 434.18 98.9 434.35 85.33 434.47 C82.88 434.49 80.43 434.52 77.98 434.54 C55.77 434.76 33.56 434.92 11.35 435.06 C8.39 435.08 5.43 435.1 2.47 435.12 C1.36 435.12 1.36 435.12 0.24 435.13 C-11.71 435.21 -23.66 435.32 -35.61 435.45 C-47.91 435.58 -60.21 435.68 -72.51 435.74 C-79.41 435.77 -86.3 435.83 -93.19 435.92 C-99.67 436 -106.15 436.04 -112.62 436.05 C-115 436.06 -117.37 436.09 -119.74 436.13 C-139.9 436.48 -139.9 436.48 -146.32 430.79 C-147.62 429.27 -148.87 427.72 -150.06 426.12 C-151.25 424.89 -152.46 423.68 -153.69 422.5 C-154.24 421.93 -154.8 421.37 -155.37 420.78 C-157.11 419.07 -158.93 417.48 -160.79 415.89 C-164.98 412.24 -168.91 408.4 -172.82 404.46 C-173.55 403.73 -174.28 403 -175.03 402.24 C-176.6 400.67 -178.17 399.1 -179.74 397.52 C-182.23 395.02 -184.72 392.52 -187.21 390.03 C-193.39 383.83 -199.57 377.63 -205.75 371.42 C-210.98 366.17 -216.21 360.92 -221.45 355.68 C-223.89 353.23 -226.33 350.77 -228.77 348.32 C-230.28 346.81 -231.79 345.29 -233.3 343.78 C-234.31 342.77 -234.31 342.77 -235.33 341.74 C-239.19 337.88 -243.15 334.21 -247.29 330.66 C-251.56 326.95 -255.49 322.87 -259.49 318.88 C-261.08 317.29 -262.68 315.71 -264.28 314.13 C-265.29 313.12 -266.3 312.11 -267.31 311.1 C-268.22 310.19 -269.14 309.28 -270.08 308.35 C-272.06 306.12 -272.06 306.12 -272.06 304.12 C-259.52 304.12 -246.98 304.12 -234.06 304.12 C-234.39 272.77 -234.72 241.42 -235.06 209.12 C-252.39 208.63 -252.39 208.63 -270.06 208.12 C-270.06 205.12 -270.06 205.12 -268.82 203.51 C-268.23 202.92 -267.64 202.34 -267.03 201.74 C-266.03 200.73 -266.03 200.73 -265 199.7 C-264.25 198.96 -263.51 198.23 -262.74 197.47 C-261.96 196.69 -261.18 195.92 -260.38 195.11 C-257.79 192.53 -255.19 189.96 -252.59 187.39 C-250.79 185.6 -248.99 183.81 -247.19 182.01 C-242.93 177.76 -238.66 173.52 -234.38 169.28 C-226.3 161.26 -218.22 153.23 -210.15 145.19 C-207.51 142.56 -204.86 139.93 -202.2 137.3 C-200.57 135.67 -198.93 134.04 -197.29 132.42 C-196.56 131.69 -195.83 130.97 -195.07 130.22 C-189.23 124.4 -183.51 118.44 -178.8 111.65 C-167.99 96.58 -154.55 79.01 -135.44 75.21 C-119.54 72.86 -103.03 74.19 -87.06 75.28 C-73.14 76.22 -59.31 76.26 -45.37 76.13 C-32.6 76.03 -19.83 76.09 -7.06 76.12 C-7.06 51.37 -7.06 26.62 -7.06 1.12 C-4.54 -0.14 -2.82 -0 0 0 Z M20.94 28.12 C19.3 31.4 19.8 35.03 19.81 38.63 C19.8 39.51 19.8 40.39 19.8 41.29 C19.8 43.18 19.8 45.06 19.81 46.94 C19.81 49.7 19.81 52.45 19.8 55.21 C19.8 66.61 20.06 78 20.45 89.39 C20.49 90.83 20.54 92.27 20.59 93.7 C20.7 97.18 20.82 100.65 20.94 104.12 C20.17 104.11 19.41 104.11 18.62 104.1 C-0.03 103.95 -18.67 103.83 -37.32 103.76 C-46.34 103.72 -55.35 103.67 -64.37 103.59 C-72.23 103.52 -80.09 103.48 -87.95 103.46 C-92.12 103.45 -96.28 103.43 -100.44 103.38 C-104.36 103.33 -108.28 103.32 -112.2 103.33 C-113.63 103.33 -115.07 103.31 -116.5 103.29 C-125.75 103.01 -125.75 103.01 -133.53 107.38 C-134.71 108.62 -135.89 109.87 -137.06 111.12 C-139.39 112.83 -141.85 114.32 -144.3 115.84 C-170.76 132.84 -201.17 156.27 -208.26 188.55 C-212.52 209.76 -212.75 231.55 -212.59 253.1 C-212.56 257.37 -212.58 261.63 -212.62 265.9 C-213.77 310.95 -213.77 310.95 -193.46 349.32 C-187.73 354.83 -181.64 359.79 -175.08 364.29 C-169.33 368.22 -164.15 372.89 -159.25 377.84 C-158.61 378.47 -157.98 379.11 -157.33 379.77 C-156.35 380.76 -156.35 380.76 -155.35 381.77 C-154.66 382.47 -153.96 383.16 -153.25 383.88 C-151.06 386.09 -148.87 388.29 -146.69 390.5 C-143.79 393.42 -140.88 396.35 -137.98 399.27 C-137.31 399.94 -136.65 400.61 -135.96 401.31 C-135.35 401.93 -134.73 402.54 -134.1 403.18 C-133.29 404 -133.29 404 -132.46 404.83 C-129.13 407.89 -125.39 407.26 -121.13 407.25 C-120.3 407.25 -119.47 407.25 -118.61 407.25 C-115.81 407.26 -113 407.26 -110.19 407.25 C-108.17 407.25 -106.15 407.26 -104.13 407.26 C-98.6 407.26 -93.07 407.26 -87.54 407.25 C-84.07 407.25 -80.61 407.24 -77.14 407.24 C-18.78 407.22 39.58 406.68 97.94 406.12 C97.96 397.67 97.98 389.22 97.99 380.77 C98 376.85 98 372.92 98.01 369 C98.02 365.2 98.03 361.41 98.03 357.62 C98.03 356.18 98.04 354.74 98.04 353.29 C98.07 345.85 98.08 338.5 96.94 331.12 C95.07 329.26 92.4 330 89.92 329.99 C89.05 329.99 88.17 330 87.28 330 C86.36 330 85.44 330 84.49 330 C81.38 330 78.28 330 75.17 330.01 C72.95 330.01 70.74 330.01 68.52 330.01 C62.48 330.01 56.44 330.01 50.4 330.02 C44.1 330.03 37.8 330.03 31.49 330.03 C20.91 330.03 10.32 330.04 -0.27 330.04 C-11.17 330.05 -22.08 330.06 -32.99 330.07 C-33.99 330.07 -33.99 330.07 -35.02 330.07 C-38.39 330.07 -41.76 330.07 -45.13 330.07 C-73.11 330.08 -101.09 330.1 -129.06 330.12 C-129.19 318.84 -129.32 307.57 -129.45 296.29 C-129.51 291.05 -129.56 285.81 -129.63 280.57 C-129.97 250.88 -130.19 221.19 -130.19 191.49 C-130.2 190.06 -130.2 190.06 -130.2 188.61 C-130.18 182.24 -130.18 182.24 -129.06 181.12 C-127.03 181 -124.99 180.95 -122.95 180.93 C-122.3 180.92 -121.65 180.91 -120.98 180.91 C-118.76 180.88 -116.53 180.86 -114.31 180.84 C-112.69 180.82 -111.07 180.8 -109.45 180.78 C-104.94 180.73 -100.43 180.69 -95.93 180.65 C-93.07 180.62 -90.21 180.59 -87.35 180.56 C-25.92 179.92 35.51 179.54 96.94 179.12 C97 147.48 96.87 115.84 96.57 84.2 C96.51 78.28 96.46 72.36 96.41 66.45 C96.37 61.84 96.33 57.22 96.29 52.61 C96.26 50.42 96.25 48.24 96.23 46.05 C96.21 43.04 96.18 40.04 96.14 37.03 C96.14 36.14 96.13 35.24 96.13 34.32 C96.46 30.41 96.46 30.41 94.94 27.12 C92.81 27.02 90.68 26.99 88.56 26.99 C87.88 26.99 87.21 26.98 86.52 26.98 C84.29 26.98 82.05 26.99 79.81 27 C78.67 27 78.67 27 77.5 27 C58.64 27.02 39.79 27.55 20.94 28.12 Z " fill="#201F20" transform="translate(308.0619201660156,62.87974548339844)"/>
<path d="M0 0 C4.48 3.73 8.67 7.59 12.71 11.78 C14.62 13.63 16.56 15.36 18.58 17.09 C23.24 21.15 27.6 25.47 31.95 29.85 C33.24 31.14 33.24 31.14 34.55 32.45 C36.87 34.78 39.2 37.12 41.52 39.45 C43.97 41.91 46.41 44.36 48.86 46.81 C55.61 53.57 62.34 60.33 69.08 67.09 C75.26 73.29 81.44 79.49 87.63 85.68 C90.06 88.12 92.49 90.55 94.92 92.99 C97.62 95.71 100.34 98.43 103.05 101.15 C103.84 101.94 104.63 102.74 105.45 103.56 C109.61 107.72 113.85 111.72 118.32 115.55 C120.43 117.37 122.41 119.28 124.38 121.25 C125.02 121.89 125.67 122.54 126.34 123.2 C129.22 126.32 130.25 128.36 130.4 132.52 C130.44 133.46 130.48 134.39 130.51 135.36 C130.54 136.39 130.57 137.42 130.6 138.49 C130.64 139.59 130.68 140.69 130.72 141.82 C131.46 165.78 131.38 189.78 131.44 213.75 C131.47 223.5 131.52 233.25 131.61 243 C131.66 249.91 131.69 256.82 131.7 263.73 C131.71 267.84 131.72 271.95 131.77 276.06 C131.81 279.91 131.82 283.75 131.81 287.6 C131.81 289.01 131.82 290.41 131.85 291.82 C132.03 302.38 132.03 302.38 129.63 306.15 C127.85 307.93 125.97 309.44 124 311 C122.78 312.29 121.59 313.6 120.44 314.95 C119.57 315.95 119.57 315.95 118.68 316.98 C116.01 320.19 113.52 323.52 111.02 326.87 C60.31 393.54 60.31 393.54 23.8 399.21 C-3.67 402.59 -31.81 399.78 -59.23 397.1 C-70.44 396.01 -81.48 395.72 -92.73 396.02 C-93.49 396.03 -94.24 396.05 -95.02 396.07 C-98.56 396.16 -102.11 396.26 -105.65 396.38 C-111.64 396.57 -117.63 396.7 -123.63 396.72 C-124.58 396.75 -125.54 396.78 -126.53 396.82 C-132.81 396.8 -135.89 395.19 -140.35 390.76 C-140.9 390.18 -141.44 389.6 -142 389 C-142.89 388.13 -143.77 387.27 -144.69 386.38 C-146.23 384.79 -147.77 383.21 -149.31 381.62 C-154.31 376.74 -159.6 372.28 -165.12 367.99 C-226.66 320.16 -226.66 320.16 -231.12 288.76 C-233.16 269.78 -231.45 250.46 -229.55 231.53 C-228.16 217.68 -227.72 204.05 -227.91 190.14 C-227.92 189.18 -227.93 188.22 -227.95 187.23 C-228.01 182.52 -228.08 177.81 -228.16 173.09 C-228.29 165.25 -228.34 157.41 -228.33 149.57 C-228.33 147.29 -228.35 145.02 -228.36 142.75 C-228.36 141.38 -228.36 140.02 -228.36 138.65 C-228.36 137.48 -228.36 136.31 -228.37 135.1 C-227.56 128.28 -222.55 124.28 -217.89 119.67 C-217.17 118.96 -216.44 118.24 -215.7 117.49 C-213.32 115.12 -210.93 112.75 -208.55 110.39 C-206.89 108.73 -205.23 107.08 -203.57 105.42 C-199.19 101.06 -194.81 96.71 -190.43 92.36 C-183.44 85.4 -176.45 78.44 -169.46 71.48 C-167.03 69.05 -164.59 66.63 -162.15 64.21 C-160.64 62.71 -159.14 61.21 -157.63 59.71 C-156.96 59.05 -156.29 58.38 -155.6 57.7 C-151.76 53.87 -148.12 49.91 -144.58 45.81 C-142.59 43.53 -140.49 41.37 -138.35 39.24 C-137.51 38.4 -136.67 37.56 -135.8 36.69 C-134.48 35.37 -134.48 35.37 -133.13 34.03 C-132.21 33.11 -131.28 32.19 -130.33 31.24 C-127.91 28.82 -125.48 26.4 -123.05 23.98 C-120.56 21.5 -118.07 19.02 -115.59 16.54 C-110.73 11.69 -105.87 6.84 -101 2 C-100.01 2.5 -100.01 2.5 -99 3 C-98.6 4.86 -98.6 4.86 -98.41 7.31 C-98.33 8.21 -98.26 9.12 -98.18 10.05 C-97.81 16.1 -97.6 22.16 -97.39 28.22 C-97.34 29.71 -97.34 29.71 -97.28 31.22 C-97.25 32.12 -97.22 33.01 -97.19 33.93 C-97.22 35.99 -97.22 35.99 -96 37 C-93.05 37.1 -90.12 37.13 -87.17 37.11 C-86.24 37.11 -85.31 37.11 -84.36 37.11 C-81.28 37.11 -78.2 37.11 -75.12 37.1 C-72.99 37.1 -70.86 37.09 -68.74 37.09 C-63.12 37.09 -57.51 37.08 -51.89 37.07 C-46.17 37.06 -40.44 37.05 -34.72 37.05 C-23.48 37.04 -12.24 37.02 -1 37 C-1 36.12 -1 36.12 -1.01 35.22 C-1.02 32.51 -1.02 29.79 -1.03 27.08 C-1.04 26.16 -1.04 25.23 -1.04 24.28 C-1.06 16.15 -0.64 8.1 0 0 Z M-131 72 C-133.33 73.71 -135.79 75.2 -138.24 76.72 C-163.87 93.19 -194.21 116.15 -201.7 147.25 C-206.62 170.01 -206.55 193.57 -206.33 216.73 C-206.31 220.16 -206.33 223.58 -206.35 227 C-207.59 271.2 -207.59 271.2 -188.49 309.11 C-182.67 314.69 -176.38 319.44 -169.67 323.87 C-162.95 328.43 -157.32 334.56 -151.63 340.3 C-150.87 341.07 -150.11 341.83 -149.33 342.62 C-146.92 345.04 -144.52 347.46 -142.12 349.88 C-138.94 353.08 -135.76 356.29 -132.57 359.49 C-131.84 360.23 -131.11 360.97 -130.36 361.73 C-129.35 362.75 -129.35 362.75 -128.31 363.78 C-127.72 364.38 -127.13 364.98 -126.52 365.6 C-123.55 368.34 -121.11 368.18 -117.18 368.31 C-115.94 368.35 -114.69 368.39 -113.42 368.44 C-112.03 368.48 -110.65 368.52 -109.26 368.56 C-107.81 368.6 -106.36 368.65 -104.91 368.69 C-91.55 369.1 -78.19 369.34 -64.83 369.53 C-55.86 369.67 -46.91 369.85 -37.94 370.17 C4.23 373.96 4.23 373.96 42 360.11 C47.18 355.19 51.32 349.64 54.87 343.45 C58.94 336.51 64.28 331.55 70.83 326.97 C85.94 316.3 102.49 302.76 106.16 283.72 C109.47 263.58 107.95 242.59 106.83 222.32 C106.36 213.56 106.17 204.8 105.98 196.03 C105.81 188.49 105.57 180.95 105.31 173.41 C105.28 172.61 105.26 171.81 105.23 170.99 C105.07 166.4 104.88 161.82 104.63 157.24 C104.56 155.86 104.5 154.48 104.45 153.1 C104.17 145.39 103.58 140.17 97.9 134.69 C97.27 134.13 96.65 133.57 96 133 C94.94 131.91 93.89 130.82 92.85 129.72 C91.78 128.65 90.7 127.57 89.62 126.5 C89.03 125.9 88.44 125.3 87.82 124.69 C85.88 122.75 83.94 120.81 82 118.87 C80.64 117.5 79.27 116.14 77.91 114.77 C75.06 111.93 72.22 109.08 69.37 106.24 C65.73 102.6 62.1 98.97 58.46 95.33 C55.65 92.52 52.84 89.7 50.03 86.89 C48.69 85.55 47.35 84.21 46.01 82.87 C44.13 80.99 42.25 79.12 40.38 77.25 C39.83 76.7 39.29 76.15 38.73 75.59 C37.68 74.55 36.63 73.53 35.56 72.52 C34 71 34 71 32.56 69.31 C28.87 65.39 25.87 64.57 20.52 64.23 C17.86 64.19 15.22 64.19 12.56 64.21 C11.1 64.2 9.63 64.19 8.17 64.17 C4.2 64.14 0.23 64.15 -3.74 64.16 C-7.05 64.17 -10.37 64.16 -13.69 64.15 C-21.52 64.13 -29.35 64.14 -37.18 64.16 C-45.24 64.19 -53.3 64.17 -61.37 64.13 C-68.3 64.09 -75.24 64.08 -82.18 64.1 C-86.31 64.11 -90.45 64.1 -94.59 64.08 C-98.48 64.05 -102.37 64.06 -106.26 64.1 C-107.69 64.11 -109.11 64.1 -110.53 64.08 C-120.03 63.98 -124.52 65.14 -131 72 Z " fill="#201F20" transform="translate(681,100)"/>
<path d="M0 0 C1.87 -0 1.87 -0 3.78 -0.01 C5.17 -0.01 6.56 -0 7.94 -0 C9.4 -0 10.86 -0.01 12.32 -0.01 C16.28 -0.01 20.24 -0.01 24.2 -0.01 C28.34 -0 32.48 -0.01 36.62 -0.01 C43.57 -0.01 50.52 -0.01 57.48 -0 C65.52 0 73.57 0 81.62 -0.01 C88.52 -0.01 95.42 -0.01 102.32 -0.01 C106.44 -0.01 110.57 -0.01 114.69 -0.01 C118.57 -0.01 122.45 -0.01 126.32 -0 C127.75 -0 129.18 -0 130.6 -0.01 C132.54 -0.01 134.48 -0 136.42 0 C137.51 0 138.6 0 139.72 0 C142.15 0.13 142.15 0.13 143.15 1.13 C143.31 3.49 143.41 5.82 143.46 8.19 C143.48 8.94 143.5 9.69 143.52 10.47 C143.59 13.02 143.65 15.57 143.71 18.12 C143.73 19.02 143.75 19.91 143.77 20.83 C144.34 45.71 144.26 70.59 144.22 95.47 C144.21 101.77 144.2 108.08 144.2 114.38 C144.19 126.63 144.17 138.88 144.15 151.13 C105.59 151.74 67.03 152.23 28.46 152.25 C25.95 152.25 23.45 152.26 20.95 152.26 C17.02 152.27 13.09 152.27 9.16 152.26 C7.72 152.26 6.27 152.26 4.83 152.26 C2.87 152.27 0.9 152.26 -1.06 152.26 C-2.16 152.26 -3.26 152.25 -4.4 152.25 C-6.85 152.13 -6.85 152.13 -7.85 151.13 C-7.95 149.19 -7.97 147.25 -7.97 145.31 C-7.97 144.05 -7.98 142.79 -7.98 141.48 C-7.97 140.07 -7.97 138.66 -7.97 137.24 C-7.97 135.77 -7.97 134.29 -7.97 132.81 C-7.97 128.79 -7.96 124.76 -7.95 120.74 C-7.95 116.53 -7.95 112.33 -7.95 108.13 C-7.94 100.17 -7.93 92.21 -7.92 84.25 C-7.91 75.19 -7.91 66.12 -7.9 57.06 C-7.89 38.42 -7.87 19.77 -7.85 1.13 C-5.14 -0.23 -3.03 0 0 0 Z " fill="#201F20" transform="translate(564.8524322509766,240.87301635742188)"/>
<path d="M0 0 C1.79 -0 3.59 -0 5.38 -0 C9.11 -0 12.83 -0 16.56 0 C21.34 0.01 26.13 0 30.91 -0 C34.6 -0 38.28 -0 41.97 -0 C43.74 -0 45.5 -0 47.27 -0 C49.72 -0.01 52.17 -0 54.62 0 C55.35 0 56.09 -0 56.84 -0 C61.83 0.02 61.83 0.02 62.95 1.13 C63.04 4.12 63.07 7.08 63.06 10.06 C63.06 11 63.06 11.93 63.06 12.9 C63.06 16.01 63.05 19.12 63.05 22.23 C63.05 24.38 63.04 26.53 63.04 28.68 C63.04 34.36 63.03 40.03 63.02 45.7 C63.01 51.49 63 57.27 63 63.06 C62.99 74.42 62.97 85.77 62.95 97.13 C50.58 97.16 38.21 97.17 25.84 97.18 C20.1 97.19 14.36 97.2 8.61 97.21 C3.08 97.22 -2.46 97.23 -8 97.23 C-10.12 97.23 -12.23 97.23 -14.35 97.24 C-17.31 97.25 -20.26 97.25 -23.22 97.25 C-24.54 97.25 -24.54 97.25 -25.9 97.26 C-31.94 97.25 -31.94 97.25 -33.05 96.13 C-33.45 91.5 -33.49 86.84 -33.61 82.2 C-33.63 81.46 -33.65 80.73 -33.68 79.97 C-34.13 63.34 -34.16 46.71 -34.18 30.07 C-34.18 28.75 -34.18 27.44 -34.18 26.08 C-34.19 22.32 -34.19 18.55 -34.18 14.79 C-34.19 13.64 -34.19 12.49 -34.19 11.31 C-34.18 9.73 -34.18 9.73 -34.18 8.13 C-34.18 7.21 -34.18 6.29 -34.18 5.34 C-34.05 3.13 -34.05 3.13 -33.05 1.13 C-22.28 -0.64 -10.88 -0.01 0 0 Z " fill="#FCFDFF" transform="translate(618.05078125,267.8671875)"/>
<path d="M0 0 C6.21 4.87 10.73 11.68 12.06 19.54 C12.97 28.28 12.22 36.44 6.73 43.6 C0.72 50.37 -5.17 53.94 -14.16 54.91 C-24.08 55.33 -31.9 52.38 -39.59 46.15 C-45.44 40.76 -48.04 33.09 -48.38 25.24 C-47.78 17.26 -44.72 9.1 -39.25 3.2 C-27.28 -6.52 -13.17 -8.13 0 0 Z " fill="#FBFCFE" transform="translate(1211.2734375,125.40234375)"/>
<path d="M0 0 C6.21 4.87 10.73 11.68 12.06 19.54 C12.97 28.28 12.22 36.44 6.73 43.6 C0.72 50.37 -5.17 53.94 -14.16 54.91 C-24.08 55.33 -31.9 52.38 -39.59 46.15 C-45.44 40.76 -48.04 33.09 -48.38 25.24 C-47.78 17.26 -44.72 9.1 -39.25 3.2 C-27.28 -6.52 -13.17 -8.13 0 0 Z M-37.27 9.6 C-41.44 16.41 -43.08 22.61 -42.27 30.6 C-40.2 38.32 -33.92 43.5 -27.48 47.8 C-21.52 49.96 -12.61 49.71 -6.66 47.72 C-1.13 44.45 3.29 39.53 6.1 33.79 C7.75 25.39 7.1 18.86 2.4 11.53 C-1.35 6.18 -4.96 2.7 -11.27 0.6 C-21.64 -0.44 -29.95 2.1 -37.27 9.6 Z " fill="#201F20" transform="translate(1211.2734375,125.40234375)"/>
<path d="M0 0 C2.63 2.32 3.77 4.67 5.12 7.88 C2.82 8.53 0.51 9.19 -1.88 9.88 C-1.88 9.22 -1.88 8.56 -1.88 7.88 C-3.15 7.71 -4.43 7.54 -5.75 7.38 C-6.83 7.24 -6.83 7.24 -7.93 7.09 C-9.88 6.84 -9.88 6.84 -11.88 6.88 C-13.06 10.57 -13.16 14.02 -12.88 17.88 C-11.83 19.92 -11.83 19.92 -9.88 20.88 C-7.38 21.46 -7.38 21.46 -4.88 20.88 C-3.03 18.97 -3.03 18.97 -1.88 16.88 C-0.22 17.2 1.42 17.53 3.12 17.88 C3.12 18.53 3.12 19.19 3.12 19.88 C3.79 19.88 4.44 19.88 5.12 19.88 C4.58 23.68 2.97 25.38 0.12 27.88 C-3.86 29.87 -8.54 29.39 -12.88 28.88 C-16.99 27.28 -19.97 25.28 -22.38 21.56 C-23.66 14.66 -23.12 10 -19.88 3.88 C-15.27 -2.19 -6.65 -2.6 0 0 Z " fill="#201F20" transform="translate(1201.875,136.125)"/>
</svg>
